<?xml version="1.0" encoding="utf-8"?>
<!-- Generator: Adobe Illustrator 16.0.4, SVG Export Plug-In . SVG Version: 6.00 Build 0)  -->
<!DOCTYPE svg PUBLIC "-//W3C//DTD SVG 1.1//EN" "http://www.w3.org/Graphics/SVG/1.1/DTD/svg11.dtd">
<svg version="1.1" xmlns="http://www.w3.org/2000/svg" xmlns:xlink="http://www.w3.org/1999/xlink" x="0px" y="0px"
	 viewBox="0 0 297.454 70.047" enable-background="new 0 0 297.454 70.047"
	 xml:space="preserve">
<g id="Ebene_1">
	<g>
		<g>
			<path fill="#4A4A49" d="M251.611,17.42h0.26c0.241,0,0.414-0.075,0.52-0.226l1.58-2.292c0.093-0.122,0.193-0.206,0.301-0.253
				c0.107-0.046,0.241-0.07,0.402-0.07h1.415l-2.08,2.836c-0.147,0.196-0.307,0.337-0.477,0.423
				c0.122,0.045,0.232,0.108,0.332,0.188s0.192,0.185,0.279,0.313l2.119,3.255h-1.454c-0.094,0-0.173-0.006-0.238-0.019
				c-0.066-0.013-0.123-0.032-0.171-0.058c-0.049-0.025-0.091-0.057-0.126-0.094s-0.068-0.08-0.101-0.127l-1.589-2.441
				c-0.058-0.09-0.131-0.153-0.22-0.19c-0.088-0.037-0.207-0.056-0.358-0.056h-0.395v2.985h-1.628v-7.016h1.628V17.42z"/>
			<path fill="#4A4A49" d="M259.907,20.309c0.218,0,0.413-0.036,0.585-0.108s0.317-0.176,0.436-0.311
				c0.119-0.135,0.21-0.299,0.272-0.494c0.062-0.194,0.094-0.415,0.094-0.662v-4.155h1.628v4.155c0,0.431-0.07,0.825-0.21,1.185
				c-0.14,0.36-0.34,0.669-0.6,0.93c-0.26,0.26-0.576,0.462-0.948,0.606s-0.791,0.217-1.257,0.217c-0.469,0-0.89-0.072-1.262-0.217
				s-0.688-0.347-0.948-0.606c-0.26-0.26-0.459-0.57-0.598-0.93c-0.138-0.359-0.207-0.754-0.207-1.185v-4.155h1.628v4.151
				c0,0.247,0.031,0.468,0.094,0.662c0.062,0.194,0.153,0.359,0.272,0.496c0.118,0.137,0.264,0.241,0.436,0.313
				S259.688,20.309,259.907,20.309z"/>
			<path fill="#4A4A49" d="M266.013,20.294h2.6v1.3h-4.228v-7.016h1.628V20.294z"/>
		</g>
		<g>
			<path fill="#4A4A49" d="M273.604,14.579v1.291h-1.975v5.725h-1.628V15.87h-1.974v-1.291H273.604z"/>
			<path fill="#4A4A49" d="M277.547,20.309c0.218,0,0.413-0.036,0.585-0.108s0.317-0.176,0.436-0.311
				c0.119-0.135,0.21-0.299,0.272-0.494c0.062-0.194,0.094-0.415,0.094-0.662v-4.155h1.628v4.155c0,0.431-0.07,0.825-0.21,1.185
				c-0.14,0.36-0.34,0.669-0.6,0.93c-0.26,0.26-0.576,0.462-0.948,0.606s-0.791,0.217-1.257,0.217c-0.469,0-0.89-0.072-1.262-0.217
				s-0.688-0.347-0.948-0.606c-0.26-0.26-0.459-0.57-0.598-0.93c-0.138-0.359-0.207-0.754-0.207-1.185v-4.155h1.628v4.151
				c0,0.247,0.031,0.468,0.094,0.662c0.062,0.194,0.153,0.359,0.272,0.496c0.118,0.137,0.264,0.241,0.436,0.313
				S277.328,20.309,277.547,20.309z"/>
			<path fill="#4A4A49" d="M283.652,19v2.595h-1.628v-7.016h2.282c0.508,0,0.94,0.052,1.298,0.157
				c0.358,0.104,0.65,0.25,0.876,0.436c0.227,0.187,0.392,0.406,0.494,0.66c0.103,0.254,0.154,0.53,0.154,0.828
				c0,0.228-0.031,0.443-0.092,0.646c-0.062,0.202-0.151,0.389-0.272,0.561c-0.12,0.171-0.268,0.325-0.442,0.459
				s-0.377,0.246-0.604,0.333c0.109,0.055,0.21,0.123,0.304,0.205c0.093,0.082,0.176,0.179,0.25,0.291l1.492,2.441h-1.473
				c-0.273,0-0.469-0.103-0.588-0.308l-1.165-2.037c-0.055-0.087-0.115-0.15-0.183-0.19S284.191,19,284.066,19H283.652z
				 M283.652,17.877h0.654c0.222,0,0.41-0.028,0.566-0.084c0.155-0.056,0.283-0.134,0.383-0.234
				c0.099-0.099,0.171-0.216,0.216-0.349c0.045-0.133,0.068-0.277,0.068-0.431c0-0.308-0.101-0.549-0.302-0.722
				c-0.2-0.173-0.511-0.26-0.932-0.26h-0.654V17.877z"/>
		</g>
		<g>
			<path fill="#4A4A49" d="M253.859,26.911c-0.048,0.077-0.099,0.135-0.151,0.173s-0.121,0.058-0.205,0.058
				c-0.073,0-0.153-0.023-0.238-0.07c-0.085-0.047-0.181-0.099-0.288-0.157c-0.108-0.058-0.23-0.11-0.369-0.156
				c-0.138-0.047-0.295-0.07-0.472-0.07c-0.305,0-0.532,0.065-0.682,0.195c-0.148,0.13-0.224,0.306-0.224,0.527
				c0,0.141,0.045,0.258,0.135,0.352c0.09,0.093,0.208,0.173,0.354,0.241c0.146,0.067,0.312,0.129,0.5,0.185
				c0.188,0.056,0.38,0.119,0.576,0.188c0.195,0.069,0.388,0.15,0.575,0.243s0.354,0.212,0.501,0.356
				c0.146,0.144,0.264,0.32,0.354,0.527s0.135,0.457,0.135,0.749c0,0.324-0.056,0.627-0.168,0.91
				c-0.113,0.282-0.275,0.529-0.489,0.739c-0.214,0.21-0.477,0.375-0.79,0.496c-0.312,0.121-0.668,0.181-1.066,0.181
				c-0.218,0-0.44-0.022-0.667-0.067c-0.226-0.045-0.445-0.108-0.657-0.19c-0.212-0.082-0.41-0.179-0.597-0.291
				s-0.349-0.238-0.486-0.376l0.481-0.761c0.039-0.054,0.089-0.1,0.151-0.137c0.063-0.037,0.131-0.055,0.205-0.055
				c0.097,0,0.193,0.03,0.291,0.091c0.099,0.061,0.209,0.128,0.332,0.202c0.124,0.074,0.266,0.142,0.427,0.203
				c0.16,0.061,0.35,0.091,0.568,0.091c0.295,0,0.524-0.065,0.688-0.195c0.163-0.13,0.245-0.336,0.245-0.619
				c0-0.164-0.045-0.297-0.135-0.399s-0.208-0.188-0.354-0.255c-0.146-0.067-0.312-0.126-0.499-0.178
				c-0.186-0.051-0.377-0.108-0.572-0.171c-0.196-0.062-0.387-0.14-0.573-0.231s-0.353-0.212-0.498-0.361
				c-0.146-0.149-0.265-0.335-0.354-0.559s-0.135-0.499-0.135-0.826c0-0.263,0.053-0.52,0.159-0.77
				c0.105-0.25,0.262-0.474,0.467-0.669s0.458-0.352,0.756-0.469c0.299-0.117,0.641-0.176,1.025-0.176
				c0.216,0,0.425,0.017,0.629,0.05s0.397,0.083,0.58,0.149s0.354,0.145,0.513,0.236s0.301,0.195,0.426,0.311L253.859,26.911z"/>
			<path fill="#4A4A49" d="M260.553,25.485v1.291h-1.975v5.725h-1.628v-5.725h-1.974v-1.291H260.553z"/>
			<path fill="#4A4A49" d="M263.206,32.501h-1.638v-7.016h1.638V32.501z"/>
			<path fill="#4A4A49" d="M269.272,25.485v1.252h-2.879v1.777h2.397v1.257h-2.397v2.73h-1.638v-7.016H269.272z"/>
			<path fill="#4A4A49" d="M275.445,25.485v1.291h-1.975v5.725h-1.628v-5.725h-1.974v-1.291H275.445z"/>
			<path fill="#4A4A49" d="M279.389,31.215c0.218,0,0.413-0.036,0.585-0.108s0.317-0.176,0.436-0.311
				c0.119-0.135,0.21-0.299,0.272-0.494c0.062-0.194,0.094-0.415,0.094-0.662v-4.155h1.628v4.155c0,0.431-0.07,0.825-0.21,1.185
				c-0.14,0.36-0.34,0.669-0.6,0.93c-0.26,0.26-0.576,0.462-0.948,0.606s-0.791,0.217-1.257,0.217c-0.469,0-0.89-0.072-1.262-0.217
				s-0.688-0.347-0.948-0.606c-0.26-0.26-0.459-0.57-0.598-0.93c-0.138-0.359-0.207-0.754-0.207-1.185v-4.155h1.628v4.151
				c0,0.247,0.031,0.468,0.094,0.662c0.062,0.194,0.153,0.359,0.272,0.496c0.118,0.137,0.264,0.241,0.436,0.313
				S279.17,31.215,279.389,31.215z"/>
			<path fill="#4A4A49" d="M284.901,25.495c0.049,0.006,0.092,0.019,0.13,0.036c0.039,0.018,0.076,0.042,0.111,0.075
				s0.075,0.075,0.12,0.13l3.332,4.213c-0.013-0.135-0.022-0.266-0.029-0.393c-0.006-0.127-0.009-0.247-0.009-0.359v-3.712h1.435
				v7.016h-0.848c-0.125,0-0.23-0.02-0.315-0.06s-0.169-0.11-0.253-0.209l-3.308-4.18c0.01,0.122,0.018,0.242,0.024,0.359
				c0.006,0.117,0.01,0.227,0.01,0.33v3.761h-1.436v-7.016h0.857C284.794,25.485,284.854,25.489,284.901,25.495z"/>
			<path fill="#4A4A49" d="M296.258,32.4c-0.406,0.119-0.831,0.178-1.273,0.178c-0.578,0-1.104-0.091-1.577-0.272
				c-0.474-0.182-0.879-0.432-1.216-0.751c-0.337-0.319-0.598-0.698-0.78-1.136s-0.274-0.914-0.274-1.428
				c0-0.523,0.087-1.004,0.26-1.442c0.174-0.438,0.422-0.816,0.744-1.134c0.322-0.318,0.713-0.565,1.17-0.742
				c0.458-0.177,0.969-0.265,1.534-0.265c0.292,0,0.566,0.024,0.823,0.072c0.257,0.048,0.493,0.114,0.71,0.198
				s0.415,0.183,0.595,0.298c0.18,0.116,0.34,0.241,0.481,0.375l-0.472,0.718c-0.074,0.112-0.17,0.181-0.287,0.207
				c-0.117,0.025-0.243-0.003-0.378-0.087c-0.128-0.077-0.249-0.144-0.363-0.2s-0.23-0.102-0.349-0.137
				c-0.119-0.035-0.244-0.061-0.376-0.077s-0.279-0.024-0.443-0.024c-0.305,0-0.579,0.054-0.823,0.161
				c-0.244,0.108-0.451,0.259-0.623,0.455s-0.305,0.431-0.397,0.706s-0.14,0.58-0.14,0.917c0,0.373,0.052,0.703,0.154,0.992
				c0.103,0.289,0.248,0.533,0.436,0.732c0.188,0.199,0.412,0.351,0.674,0.455c0.262,0.104,0.552,0.157,0.869,0.157
				c0.196,0,0.373-0.02,0.532-0.058c0.159-0.039,0.313-0.09,0.465-0.154V30.05h-0.693c-0.103,0-0.183-0.027-0.241-0.082
				c-0.058-0.055-0.086-0.124-0.086-0.207v-0.896h2.494v2.961C297.046,32.09,296.663,32.281,296.258,32.4z"/>
		</g>
		<g>
			<path fill="#4A4A49" d="M251.684,43.493c-0.313,0-0.59-0.032-0.829-0.099c-0.24-0.065-0.44-0.157-0.603-0.274
				c-0.161-0.118-0.283-0.261-0.364-0.429c-0.081-0.167-0.122-0.352-0.122-0.552c0-0.194,0.061-0.352,0.181-0.471
				c0.121-0.119,0.293-0.179,0.515-0.179c0.01,0.201,0.04,0.394,0.092,0.578c0.052,0.186,0.13,0.349,0.233,0.489
				c0.104,0.142,0.234,0.254,0.395,0.339c0.16,0.084,0.353,0.127,0.578,0.127c0.433,0,0.771-0.104,1.014-0.312
				c0.243-0.209,0.364-0.509,0.364-0.9c0-0.176-0.025-0.331-0.075-0.466s-0.133-0.26-0.249-0.374s-0.269-0.224-0.458-0.329
				c-0.19-0.105-0.426-0.215-0.708-0.332c-0.298-0.122-0.559-0.253-0.78-0.393c-0.223-0.14-0.408-0.294-0.556-0.465
				s-0.257-0.361-0.329-0.571s-0.107-0.447-0.107-0.71c0-0.275,0.052-0.521,0.157-0.738c0.104-0.216,0.252-0.399,0.439-0.548
				c0.188-0.149,0.411-0.263,0.668-0.341c0.257-0.078,0.537-0.117,0.842-0.117c0.288,0,0.544,0.03,0.767,0.089
				c0.222,0.06,0.41,0.139,0.563,0.24c0.154,0.1,0.271,0.215,0.351,0.346c0.08,0.13,0.12,0.266,0.12,0.407
				c0,0.207-0.068,0.363-0.205,0.468c-0.136,0.105-0.32,0.157-0.552,0.157c0-0.15-0.019-0.298-0.055-0.444
				c-0.036-0.146-0.096-0.275-0.181-0.39c-0.085-0.114-0.196-0.208-0.334-0.28s-0.309-0.108-0.513-0.108
				c-0.185,0-0.351,0.026-0.496,0.077c-0.146,0.052-0.269,0.125-0.369,0.221s-0.177,0.211-0.23,0.346
				c-0.053,0.135-0.08,0.285-0.08,0.451c0,0.191,0.025,0.36,0.076,0.506c0.05,0.146,0.134,0.277,0.251,0.395
				c0.117,0.117,0.272,0.229,0.463,0.333c0.191,0.105,0.427,0.214,0.706,0.327c0.282,0.116,0.533,0.238,0.754,0.367
				c0.222,0.128,0.409,0.272,0.562,0.43s0.271,0.336,0.353,0.531c0.081,0.195,0.122,0.418,0.122,0.665
				c0,0.305-0.056,0.576-0.167,0.816c-0.111,0.239-0.271,0.442-0.478,0.608c-0.206,0.166-0.456,0.293-0.747,0.379
				C252.37,43.45,252.044,43.493,251.684,43.493z"/>
			<path fill="#4A4A49" d="M256.489,41.101l-0.366,1.011c-0.028,0.075-0.051,0.149-0.066,0.223c-0.016,0.074-0.023,0.138-0.023,0.19
				c0,0.163,0.053,0.282,0.158,0.357c0.104,0.075,0.266,0.113,0.481,0.113h0.222v0.404h-2.352v-0.404h0.184
				c0.094,0,0.174-0.01,0.239-0.03c0.066-0.021,0.126-0.06,0.179-0.115c0.054-0.057,0.104-0.134,0.153-0.23
				c0.049-0.098,0.103-0.223,0.162-0.376l2.135-5.718h0.752l2.178,5.958c0.037,0.101,0.075,0.184,0.115,0.249
				c0.039,0.066,0.085,0.118,0.139,0.158c0.053,0.039,0.114,0.066,0.183,0.082c0.069,0.016,0.151,0.023,0.245,0.023h0.127v0.404
				h-2.647v-0.404h0.221c0.386,0,0.579-0.153,0.579-0.461c0-0.054-0.008-0.108-0.021-0.164c-0.015-0.057-0.034-0.121-0.059-0.193
				l-0.386-1.076H256.489z M258.248,38.933c-0.101-0.286-0.191-0.553-0.274-0.802c-0.084-0.25-0.151-0.49-0.205-0.722
				c-0.021,0.116-0.048,0.228-0.077,0.336c-0.03,0.108-0.062,0.219-0.097,0.332s-0.074,0.231-0.117,0.355
				c-0.044,0.124-0.095,0.261-0.151,0.412l-0.653,1.772h2.173L258.248,38.933z"/>
		</g>
		<g>
			<path fill="#4A4A49" d="M264.976,36.426c0.329,0,0.615,0.027,0.858,0.082c0.242,0.055,0.444,0.131,0.606,0.228
				c0.161,0.097,0.282,0.212,0.361,0.343c0.08,0.132,0.12,0.274,0.12,0.428c0,0.103-0.021,0.197-0.063,0.28
				c-0.042,0.083-0.101,0.153-0.176,0.211s-0.164,0.103-0.266,0.134c-0.103,0.032-0.213,0.047-0.332,0.047
				c0-0.15-0.02-0.299-0.059-0.447s-0.104-0.28-0.192-0.397c-0.09-0.118-0.206-0.213-0.349-0.287s-0.318-0.111-0.528-0.111
				c-0.364,0-0.673,0.067-0.927,0.2s-0.461,0.328-0.621,0.583c-0.159,0.255-0.275,0.57-0.348,0.945
				c-0.072,0.375-0.108,0.804-0.108,1.286c0,0.43,0.038,0.823,0.113,1.18s0.194,0.664,0.357,0.92
				c0.163,0.255,0.37,0.453,0.623,0.595c0.252,0.141,0.556,0.211,0.91,0.211c0.234,0,0.442-0.022,0.623-0.068
				c0.18-0.045,0.339-0.105,0.477-0.181s0.26-0.162,0.364-0.261c0.105-0.099,0.198-0.201,0.28-0.309
				c0.053,0.035,0.097,0.082,0.132,0.142c0.034,0.06,0.052,0.138,0.052,0.235c0,0.122-0.042,0.246-0.125,0.373
				s-0.209,0.242-0.379,0.346c-0.169,0.104-0.384,0.189-0.644,0.257c-0.261,0.067-0.569,0.101-0.927,0.101
				c-0.479,0-0.901-0.084-1.265-0.254c-0.363-0.169-0.669-0.409-0.914-0.719c-0.247-0.311-0.433-0.684-0.558-1.119
				s-0.188-0.919-0.188-1.449c0-0.52,0.066-0.997,0.198-1.429c0.131-0.433,0.326-0.804,0.585-1.115
				c0.259-0.31,0.581-0.551,0.967-0.724C264.021,36.512,264.468,36.426,264.976,36.426z"/>
			<path fill="#4A4A49" d="M271.906,43.399v-0.404h0.127c0.11,0,0.213-0.008,0.309-0.023s0.179-0.048,0.249-0.097
				s0.127-0.118,0.169-0.209c0.043-0.091,0.063-0.212,0.063-0.362v-2.257h-3.132v2.257c0,0.15,0.021,0.271,0.063,0.362
				c0.043,0.091,0.1,0.16,0.17,0.209s0.154,0.081,0.251,0.097c0.098,0.016,0.199,0.023,0.306,0.023h0.127v0.404h-2.802v-0.404h0.122
				c0.109,0,0.212-0.008,0.308-0.023s0.18-0.048,0.252-0.097s0.128-0.118,0.169-0.209s0.062-0.212,0.062-0.362v-4.721
				c0-0.141-0.021-0.255-0.063-0.341c-0.043-0.086-0.1-0.153-0.172-0.2c-0.072-0.047-0.156-0.078-0.252-0.092
				c-0.096-0.014-0.196-0.021-0.303-0.021h-0.122v-0.404h2.802v0.404h-0.127c-0.106,0-0.208,0.008-0.306,0.023
				c-0.097,0.016-0.181,0.048-0.251,0.097c-0.07,0.048-0.127,0.118-0.17,0.209c-0.042,0.091-0.063,0.212-0.063,0.362v1.947h3.132
				v-1.947c0-0.15-0.021-0.271-0.063-0.362c-0.042-0.091-0.099-0.161-0.169-0.209c-0.07-0.049-0.153-0.081-0.249-0.097
				s-0.198-0.023-0.309-0.023h-0.127v-0.404h2.803v0.404h-0.122c-0.11,0-0.213,0.008-0.309,0.023S274.1,37,274.027,37.049
				c-0.072,0.048-0.129,0.118-0.17,0.209c-0.04,0.091-0.061,0.212-0.061,0.362v4.73c0,0.142,0.021,0.255,0.063,0.341
				c0.042,0.087,0.1,0.151,0.172,0.195c0.071,0.044,0.155,0.073,0.251,0.087c0.096,0.015,0.197,0.021,0.304,0.021h0.122v0.404
				H271.906z"/>
			<path fill="#4A4A49" d="M277.646,43.493c-0.313,0-0.59-0.032-0.829-0.099c-0.24-0.065-0.44-0.157-0.603-0.274
				c-0.161-0.118-0.283-0.261-0.364-0.429c-0.081-0.167-0.122-0.352-0.122-0.552c0-0.194,0.061-0.352,0.181-0.471
				c0.121-0.119,0.293-0.179,0.515-0.179c0.01,0.201,0.04,0.394,0.092,0.578c0.052,0.186,0.13,0.349,0.233,0.489
				c0.104,0.142,0.234,0.254,0.395,0.339c0.16,0.084,0.353,0.127,0.578,0.127c0.433,0,0.771-0.104,1.014-0.312
				c0.243-0.209,0.364-0.509,0.364-0.9c0-0.176-0.025-0.331-0.075-0.466s-0.133-0.26-0.249-0.374s-0.269-0.224-0.458-0.329
				c-0.19-0.105-0.426-0.215-0.708-0.332c-0.298-0.122-0.559-0.253-0.78-0.393c-0.223-0.14-0.408-0.294-0.556-0.465
				s-0.257-0.361-0.329-0.571s-0.107-0.447-0.107-0.71c0-0.275,0.052-0.521,0.157-0.738c0.104-0.216,0.252-0.399,0.439-0.548
				c0.188-0.149,0.411-0.263,0.668-0.341c0.257-0.078,0.537-0.117,0.842-0.117c0.288,0,0.544,0.03,0.767,0.089
				c0.222,0.06,0.41,0.139,0.563,0.24c0.154,0.1,0.271,0.215,0.351,0.346c0.08,0.13,0.12,0.266,0.12,0.407
				c0,0.207-0.068,0.363-0.205,0.468c-0.136,0.105-0.32,0.157-0.552,0.157c0-0.15-0.019-0.298-0.055-0.444
				c-0.036-0.146-0.096-0.275-0.181-0.39c-0.085-0.114-0.196-0.208-0.334-0.28s-0.309-0.108-0.513-0.108
				c-0.185,0-0.351,0.026-0.496,0.077c-0.146,0.052-0.269,0.125-0.369,0.221s-0.177,0.211-0.23,0.346
				c-0.053,0.135-0.08,0.285-0.08,0.451c0,0.191,0.025,0.36,0.076,0.506c0.05,0.146,0.134,0.277,0.251,0.395
				c0.117,0.117,0.272,0.229,0.463,0.333c0.191,0.105,0.427,0.214,0.706,0.327c0.282,0.116,0.533,0.238,0.754,0.367
				c0.222,0.128,0.409,0.272,0.562,0.43s0.271,0.336,0.353,0.531c0.081,0.195,0.122,0.418,0.122,0.665
				c0,0.305-0.056,0.576-0.167,0.816c-0.111,0.239-0.271,0.442-0.478,0.608c-0.206,0.166-0.456,0.293-0.747,0.379
				C278.333,43.45,278.007,43.493,277.646,43.493z"/>
			<path fill="#4A4A49" d="M282.951,42.92h1.857c0.154,0,0.285-0.021,0.393-0.063c0.108-0.042,0.198-0.1,0.271-0.172
				s0.129-0.156,0.17-0.251c0.04-0.096,0.068-0.197,0.084-0.304l0.066-0.414h0.503l-0.066,1.684h-5.162v-0.404h0.122
				c0.106,0,0.207-0.007,0.303-0.021c0.096-0.014,0.18-0.043,0.252-0.087s0.129-0.108,0.172-0.195
				c0.042-0.086,0.063-0.199,0.063-0.341v-4.73c0-0.15-0.021-0.271-0.062-0.362c-0.041-0.091-0.097-0.161-0.169-0.209
				c-0.072-0.049-0.156-0.081-0.252-0.097s-0.198-0.023-0.308-0.023h-0.122v-0.404h4.853l0.047,1.683h-0.499l-0.047-0.414
				c-0.013-0.106-0.037-0.208-0.072-0.303c-0.036-0.096-0.088-0.18-0.155-0.251c-0.067-0.072-0.152-0.129-0.254-0.172
				c-0.103-0.042-0.226-0.063-0.369-0.063h-1.618v2.563h2.323v0.47h-2.323V42.92z"/>
			<path fill="#4A4A49" d="M292.369,43.399l-3.61-5.548v4.453c0,0.15,0.021,0.271,0.063,0.362c0.042,0.091,0.099,0.16,0.169,0.209
				s0.154,0.081,0.252,0.097c0.097,0.016,0.198,0.023,0.305,0.023h0.127v0.404h-2.416v-0.404h0.122c0.109,0,0.212-0.008,0.308-0.023
				s0.18-0.048,0.252-0.097s0.128-0.118,0.169-0.209s0.062-0.212,0.062-0.362v-4.721c0-0.141-0.021-0.255-0.063-0.341
				c-0.043-0.086-0.1-0.153-0.172-0.2c-0.072-0.047-0.156-0.078-0.252-0.092c-0.096-0.014-0.196-0.021-0.303-0.021h-0.122v-0.404
				h1.763l3.447,5.323v-4.265c0-0.141-0.021-0.255-0.063-0.341c-0.043-0.086-0.1-0.153-0.172-0.2
				c-0.072-0.047-0.156-0.078-0.252-0.092c-0.096-0.014-0.196-0.021-0.303-0.021h-0.127v-0.404h2.417v0.404h-0.123
				c-0.109,0-0.212,0.008-0.308,0.023s-0.18,0.048-0.252,0.097c-0.071,0.048-0.128,0.118-0.169,0.209
				c-0.041,0.091-0.062,0.212-0.062,0.362v5.779H292.369z"/>
			<path fill="#4A4A49" d="M294.674,41.138v-0.724h2.506v0.724H294.674z"/>
		</g>
		<g>
			<path fill="#4A4A49" d="M251.251,51.998l-0.366,1.012c-0.028,0.075-0.051,0.149-0.066,0.223c-0.016,0.074-0.023,0.138-0.023,0.19
				c0,0.163,0.053,0.282,0.158,0.357c0.104,0.075,0.266,0.113,0.481,0.113h0.222v0.404h-2.352v-0.404h0.184
				c0.094,0,0.174-0.01,0.239-0.03c0.066-0.021,0.126-0.06,0.179-0.115c0.054-0.057,0.104-0.134,0.153-0.23
				c0.049-0.098,0.103-0.223,0.162-0.376l2.135-5.719h0.752l2.178,5.958c0.037,0.101,0.075,0.184,0.115,0.249
				c0.039,0.066,0.085,0.118,0.139,0.158c0.053,0.039,0.114,0.066,0.183,0.082c0.069,0.016,0.151,0.023,0.245,0.023h0.127v0.404
				h-2.647v-0.404h0.221c0.386,0,0.579-0.153,0.579-0.461c0-0.054-0.008-0.108-0.021-0.164c-0.015-0.057-0.034-0.121-0.059-0.193
				l-0.386-1.077H251.251z M253.01,49.831c-0.101-0.285-0.191-0.553-0.274-0.802c-0.084-0.249-0.151-0.49-0.205-0.722
				c-0.021,0.115-0.048,0.228-0.077,0.336c-0.03,0.108-0.062,0.219-0.097,0.331c-0.034,0.113-0.074,0.231-0.117,0.355
				c-0.044,0.124-0.095,0.261-0.151,0.411l-0.653,1.773h2.173L253.01,49.831z"/>
			<path fill="#4A4A49" d="M261.765,54.298l-3.61-5.549v4.453c0,0.15,0.021,0.271,0.063,0.362c0.042,0.091,0.099,0.16,0.169,0.209
				s0.154,0.081,0.252,0.097c0.097,0.016,0.198,0.023,0.305,0.023h0.127v0.404h-2.416v-0.404h0.122c0.109,0,0.212-0.008,0.308-0.023
				s0.18-0.048,0.252-0.097s0.128-0.118,0.169-0.209s0.062-0.212,0.062-0.362v-4.721c0-0.142-0.021-0.255-0.063-0.341
				c-0.043-0.086-0.1-0.153-0.172-0.2s-0.156-0.077-0.252-0.092c-0.096-0.014-0.196-0.021-0.303-0.021h-0.122v-0.405h1.763
				l3.447,5.323v-4.265c0-0.142-0.021-0.255-0.063-0.341c-0.043-0.086-0.1-0.153-0.172-0.2s-0.156-0.077-0.252-0.092
				c-0.096-0.014-0.196-0.021-0.303-0.021h-0.127v-0.405h2.417v0.405h-0.123c-0.109,0-0.212,0.008-0.308,0.023
				s-0.18,0.048-0.252,0.096c-0.071,0.049-0.128,0.119-0.169,0.21s-0.062,0.211-0.062,0.361v5.779H261.765z"/>
			<path fill="#4A4A49" d="M268.296,54.298v-0.404h0.127c0.11,0,0.213-0.008,0.309-0.023s0.179-0.048,0.249-0.097
				s0.127-0.118,0.169-0.209c0.043-0.091,0.063-0.212,0.063-0.362v-2.257h-3.132v2.257c0,0.15,0.021,0.271,0.063,0.362
				c0.043,0.091,0.1,0.16,0.17,0.209s0.154,0.081,0.251,0.097c0.098,0.016,0.199,0.023,0.306,0.023h0.127v0.404h-2.802v-0.404h0.122
				c0.109,0,0.212-0.008,0.308-0.023s0.18-0.048,0.252-0.097s0.128-0.118,0.169-0.209s0.062-0.212,0.062-0.362v-4.721
				c0-0.142-0.021-0.255-0.063-0.341c-0.043-0.086-0.1-0.153-0.172-0.2s-0.156-0.077-0.252-0.092
				c-0.096-0.014-0.196-0.021-0.303-0.021h-0.122v-0.405h2.802v0.405h-0.127c-0.106,0-0.208,0.008-0.306,0.023
				c-0.097,0.016-0.181,0.048-0.251,0.096c-0.07,0.049-0.127,0.119-0.17,0.21c-0.042,0.091-0.063,0.211-0.063,0.361v1.947h3.132
				v-1.947c0-0.15-0.021-0.271-0.063-0.361c-0.042-0.091-0.099-0.161-0.169-0.21c-0.07-0.048-0.153-0.08-0.249-0.096
				s-0.198-0.023-0.309-0.023h-0.127v-0.405h2.803v0.405h-0.122c-0.11,0-0.213,0.008-0.309,0.023s-0.179,0.048-0.251,0.096
				c-0.072,0.049-0.129,0.119-0.17,0.21c-0.04,0.091-0.061,0.211-0.061,0.361v4.73c0,0.142,0.021,0.255,0.063,0.341
				c0.042,0.087,0.1,0.151,0.172,0.195c0.071,0.044,0.155,0.073,0.251,0.087c0.096,0.015,0.197,0.021,0.304,0.021h0.122v0.404
				H268.296z"/>
			<path fill="#4A4A49" d="M273.604,51.998l-0.366,1.012c-0.028,0.075-0.051,0.149-0.066,0.223c-0.016,0.074-0.023,0.138-0.023,0.19
				c0,0.163,0.053,0.282,0.158,0.357c0.104,0.075,0.266,0.113,0.481,0.113h0.222v0.404h-2.352v-0.404h0.184
				c0.094,0,0.174-0.01,0.239-0.03c0.066-0.021,0.126-0.06,0.179-0.115c0.054-0.057,0.104-0.134,0.153-0.23
				c0.049-0.098,0.103-0.223,0.162-0.376l2.135-5.719h0.752l2.178,5.958c0.037,0.101,0.075,0.184,0.115,0.249
				c0.039,0.066,0.085,0.118,0.139,0.158c0.053,0.039,0.114,0.066,0.183,0.082c0.069,0.016,0.151,0.023,0.245,0.023h0.127v0.404
				h-2.647v-0.404h0.221c0.386,0,0.579-0.153,0.579-0.461c0-0.054-0.008-0.108-0.021-0.164c-0.015-0.057-0.034-0.121-0.059-0.193
				l-0.386-1.077H273.604z M275.363,49.831c-0.101-0.285-0.191-0.553-0.274-0.802c-0.084-0.249-0.151-0.49-0.205-0.722
				c-0.021,0.115-0.048,0.228-0.077,0.336c-0.03,0.108-0.062,0.219-0.097,0.331c-0.034,0.113-0.074,0.231-0.117,0.355
				c-0.044,0.124-0.095,0.261-0.151,0.411l-0.653,1.773h2.173L275.363,49.831z"/>
		</g>
		<g>
			<path fill="#4A4A49" d="M279.008,54.298v-0.404h0.122c0.109,0,0.212-0.008,0.308-0.023s0.18-0.048,0.252-0.097
				s0.128-0.118,0.169-0.209s0.062-0.212,0.062-0.362v-4.684c0-0.15-0.021-0.271-0.062-0.361s-0.097-0.161-0.169-0.21
				c-0.072-0.048-0.156-0.08-0.252-0.096s-0.198-0.023-0.308-0.023h-0.122v-0.405h2.802v0.405h-0.127
				c-0.106,0-0.207,0.007-0.303,0.021c-0.096,0.015-0.18,0.045-0.252,0.092s-0.129,0.114-0.172,0.2
				c-0.042,0.086-0.063,0.199-0.063,0.341v5.337h1.9c0.144,0,0.267-0.026,0.369-0.078c0.102-0.052,0.186-0.119,0.251-0.202
				c0.066-0.083,0.117-0.176,0.153-0.279s0.06-0.207,0.072-0.311l0.095-0.72h0.503l-0.066,2.069H279.008z"/>
			<path fill="#4A4A49" d="M287.587,53.202c0,0.15,0.021,0.271,0.063,0.362s0.099,0.16,0.169,0.209
				c0.071,0.049,0.155,0.081,0.252,0.097c0.098,0.016,0.199,0.023,0.306,0.023h0.221v0.404h-2.995v-0.404h0.222
				c0.106,0,0.207-0.007,0.303-0.021c0.096-0.014,0.18-0.043,0.252-0.087c0.071-0.044,0.129-0.108,0.171-0.195
				c0.043-0.086,0.063-0.199,0.063-0.341v-5.346h-0.921c-0.142,0-0.26,0.021-0.355,0.063c-0.096,0.042-0.174,0.1-0.235,0.171
				c-0.061,0.072-0.106,0.156-0.136,0.252c-0.03,0.096-0.051,0.196-0.063,0.304l-0.052,0.413h-0.499l0.048-1.684h5.421l0.047,1.684
				h-0.498l-0.047-0.413c-0.013-0.107-0.034-0.208-0.066-0.304c-0.031-0.096-0.076-0.18-0.136-0.252
				c-0.06-0.071-0.138-0.129-0.235-0.171c-0.097-0.043-0.218-0.063-0.362-0.063h-0.936V53.202z"/>
		</g>
		<g>
			<path fill="#4A4A49" d="M3.634,27.38h5.805v2.902H0V14.62h3.634V27.38z"/>
			<path fill="#4A4A49" d="M16.641,24.327v5.956h-3.633v-5.956L7.332,14.62h3.203c0.315,0,0.564,0.073,0.747,0.22
				c0.183,0.147,0.335,0.335,0.457,0.564l2.214,4.558c0.187,0.358,0.353,0.693,0.5,1.005c0.147,0.312,0.278,0.618,0.393,0.919
				c0.107-0.308,0.233-0.618,0.376-0.93c0.144-0.312,0.308-0.643,0.495-0.994l2.193-4.558c0.05-0.093,0.111-0.187,0.183-0.28
				c0.071-0.093,0.156-0.177,0.252-0.252s0.208-0.136,0.333-0.183s0.264-0.07,0.414-0.07h3.225L16.641,24.327z"/>
		</g>
		<g>
			<path fill="#4A4A49" d="M38.505,22.445c0,1.133-0.195,2.186-0.586,3.161s-0.94,1.822-1.65,2.542s-1.564,1.285-2.564,1.693
				c-1,0.409-2.109,0.613-3.327,0.613s-2.329-0.204-3.333-0.613c-1.003-0.408-1.861-0.973-2.575-1.693
				c-0.713-0.72-1.265-1.568-1.655-2.542s-0.586-2.028-0.586-3.161c0-1.132,0.195-2.186,0.586-3.16s0.942-1.82,1.655-2.537
				c0.713-0.717,1.571-1.279,2.575-1.688c1.003-0.408,2.114-0.613,3.333-0.613s2.328,0.207,3.327,0.618
				c1,0.413,1.854,0.977,2.564,1.693s1.259,1.562,1.65,2.537S38.505,21.32,38.505,22.445z M34.786,22.445
				c0-0.774-0.101-1.471-0.301-2.091c-0.201-0.62-0.489-1.145-0.865-1.575c-0.376-0.43-0.837-0.76-1.381-0.989
				c-0.545-0.229-1.165-0.344-1.86-0.344c-0.703,0-1.328,0.115-1.876,0.344c-0.548,0.229-1.01,0.559-1.387,0.989
				c-0.376,0.43-0.665,0.955-0.865,1.575c-0.201,0.62-0.301,1.317-0.301,2.091c0,0.781,0.101,1.482,0.301,2.102
				c0.201,0.62,0.489,1.145,0.865,1.575c0.376,0.43,0.838,0.758,1.387,0.983c0.548,0.226,1.173,0.339,1.876,0.339
				c0.695,0,1.315-0.113,1.86-0.339c0.544-0.226,1.005-0.554,1.381-0.983c0.376-0.43,0.665-0.955,0.865-1.575
				C34.686,23.927,34.786,23.227,34.786,22.445z"/>
			<path fill="#4A4A49" d="M43.386,14.641c0.107,0.014,0.204,0.041,0.29,0.081s0.168,0.095,0.247,0.167
				c0.079,0.072,0.168,0.168,0.269,0.291l7.439,9.406c-0.029-0.301-0.05-0.593-0.064-0.876c-0.015-0.283-0.021-0.55-0.021-0.801
				V14.62h3.204v15.663h-1.892c-0.28,0-0.515-0.045-0.704-0.134c-0.19-0.09-0.378-0.246-0.564-0.468l-7.385-9.331
				c0.021,0.272,0.039,0.54,0.054,0.801c0.014,0.262,0.021,0.507,0.021,0.737v8.396h-3.204V14.62h1.914
				C43.146,14.62,43.279,14.626,43.386,14.641z"/>
			<path fill="#4A4A49" d="M68.293,14.62v2.795h-6.428v3.655h4.923v2.688h-4.923v3.73h6.428v2.795H58.21V14.62H68.293z"/>
			<path fill="#4A4A49" d="M74.593,27.38h5.805v2.902h-9.438V14.62h3.634V27.38z"/>
		</g>
		<g>
			<path fill="#4A4A49" d="M79.501,22.402h5.805v2.688h-5.805V22.402z"/>
			<path fill="#4A4A49" d="M98.517,14.62v2.795h-6.428v3.967h5.354v2.806h-5.354v6.095h-3.655V14.62H98.517z"/>
			<path fill="#4A4A49" d="M111.191,14.62v2.795h-6.428v3.655h4.923v2.688h-4.923v3.73h6.428v2.795h-10.083V14.62H111.191z"/>
			<path fill="#4A4A49" d="M117.577,30.282h-3.655V14.62h3.655V30.282z"/>
			<path fill="#4A4A49" d="M123.414,14.641c0.107,0.014,0.204,0.041,0.29,0.081s0.168,0.095,0.247,0.167
				c0.079,0.072,0.168,0.168,0.269,0.291l7.439,9.406c-0.029-0.301-0.05-0.593-0.064-0.876c-0.015-0.283-0.021-0.55-0.021-0.801
				V14.62h3.204v15.663h-1.892c-0.28,0-0.515-0.045-0.704-0.134c-0.19-0.09-0.378-0.246-0.564-0.468l-7.385-9.331
				c0.021,0.272,0.039,0.54,0.054,0.801c0.014,0.262,0.021,0.507,0.021,0.737v8.396h-3.204V14.62h1.914
				C123.174,14.62,123.307,14.626,123.414,14.641z"/>
			<path fill="#4A4A49" d="M141.958,30.282h-3.655V14.62h3.655V30.282z"/>
			<path fill="#4A4A49" d="M147.795,14.641c0.107,0.014,0.204,0.041,0.29,0.081s0.169,0.095,0.247,0.167
				c0.079,0.072,0.168,0.168,0.27,0.291l7.438,9.406c-0.028-0.301-0.05-0.593-0.064-0.876c-0.015-0.283-0.021-0.55-0.021-0.801
				V14.62h3.203v15.663h-1.892c-0.279,0-0.515-0.045-0.704-0.134c-0.19-0.09-0.378-0.246-0.564-0.468l-7.386-9.331
				c0.021,0.272,0.039,0.54,0.055,0.801c0.014,0.262,0.021,0.507,0.021,0.737v8.396h-3.204V14.62h1.914
				C147.555,14.62,147.688,14.626,147.795,14.641z"/>
			<path fill="#4A4A49" d="M173.213,30.057c-0.906,0.265-1.854,0.397-2.843,0.397c-1.29,0-2.464-0.202-3.521-0.607
				c-1.058-0.405-1.962-0.964-2.715-1.677c-0.752-0.713-1.333-1.559-1.741-2.537c-0.408-0.978-0.613-2.041-0.613-3.188
				c0-1.168,0.194-2.241,0.581-3.219c0.387-0.979,0.94-1.822,1.661-2.532c0.72-0.709,1.591-1.261,2.612-1.656
				c1.021-0.394,2.162-0.591,3.424-0.591c0.651,0,1.265,0.054,1.838,0.162s1.102,0.254,1.586,0.44
				c0.483,0.187,0.926,0.409,1.327,0.667c0.401,0.258,0.76,0.538,1.075,0.839l-1.054,1.602c-0.165,0.251-0.378,0.405-0.64,0.462
				c-0.262,0.057-0.543-0.007-0.844-0.194c-0.287-0.172-0.558-0.32-0.812-0.446c-0.255-0.125-0.515-0.228-0.779-0.307
				c-0.266-0.079-0.545-0.136-0.839-0.172c-0.294-0.036-0.623-0.054-0.988-0.054c-0.682,0-1.294,0.12-1.839,0.36
				c-0.545,0.24-1.009,0.579-1.392,1.016c-0.384,0.437-0.68,0.962-0.888,1.575c-0.207,0.613-0.312,1.295-0.312,2.048
				c0,0.832,0.115,1.57,0.344,2.215c0.229,0.645,0.554,1.189,0.974,1.634c0.419,0.444,0.921,0.783,1.505,1.016
				s1.23,0.349,1.94,0.349c0.437,0,0.833-0.043,1.188-0.129s0.7-0.201,1.037-0.344v-2.375h-1.548c-0.229,0-0.408-0.061-0.537-0.183
				c-0.129-0.122-0.193-0.276-0.193-0.462v-2h5.568v6.611C174.975,29.365,174.12,29.792,173.213,30.057z"/>
			<path fill="#4A4A49" d="M188.795,14.62v2.795h-6.429v3.655h4.924v2.688h-4.924v3.73h6.429v2.795h-10.084V14.62H188.795z"/>
			<path fill="#4A4A49" d="M195.159,24.488v5.794h-3.634V14.62h5.096c1.132,0,2.098,0.116,2.897,0.349
				c0.799,0.233,1.451,0.558,1.956,0.973s0.872,0.907,1.102,1.473s0.345,1.183,0.345,1.849c0,0.509-0.068,0.989-0.205,1.44
				c-0.136,0.451-0.338,0.869-0.606,1.252c-0.27,0.383-0.599,0.726-0.989,1.026c-0.391,0.301-0.841,0.548-1.35,0.742
				c0.244,0.122,0.47,0.274,0.678,0.457s0.394,0.399,0.559,0.65l3.333,5.45h-3.29c-0.609,0-1.046-0.229-1.312-0.688l-2.602-4.547
				c-0.122-0.193-0.258-0.335-0.408-0.424c-0.15-0.09-0.365-0.135-0.645-0.135H195.159z M195.159,21.983h1.462
				c0.494,0,0.915-0.063,1.263-0.188c0.348-0.125,0.633-0.299,0.854-0.521c0.223-0.222,0.384-0.482,0.484-0.78
				c0.101-0.297,0.15-0.618,0.15-0.962c0-0.688-0.224-1.226-0.672-1.612c-0.448-0.387-1.142-0.581-2.08-0.581h-1.462V21.983z"/>
		</g>
		<g>
			<path fill="#4A4A49" d="M124.241,54.041c-0.907,0.265-1.854,0.397-2.843,0.397c-1.29,0-2.464-0.202-3.521-0.607
				c-1.057-0.404-1.961-0.964-2.714-1.677c-0.752-0.713-1.333-1.559-1.741-2.537c-0.409-0.979-0.613-2.041-0.613-3.188
				c0-1.168,0.193-2.241,0.581-3.22c0.387-0.978,0.94-1.822,1.661-2.531c0.72-0.709,1.591-1.261,2.612-1.656
				c1.021-0.394,2.163-0.591,3.424-0.591c0.652,0,1.265,0.054,1.838,0.162s1.102,0.254,1.585,0.44
				c0.484,0.187,0.926,0.409,1.328,0.667c0.401,0.258,0.76,0.538,1.075,0.839l-1.054,1.602c-0.165,0.251-0.378,0.405-0.64,0.462
				c-0.262,0.058-0.542-0.007-0.844-0.193c-0.287-0.172-0.557-0.32-0.812-0.446c-0.254-0.125-0.514-0.228-0.779-0.306
				c-0.265-0.079-0.545-0.137-0.838-0.173c-0.294-0.035-0.624-0.054-0.989-0.054c-0.681,0-1.293,0.12-1.838,0.36
				c-0.544,0.24-1.009,0.579-1.392,1.016c-0.383,0.438-0.679,0.963-0.887,1.575c-0.208,0.613-0.312,1.296-0.312,2.048
				c0,0.832,0.115,1.569,0.344,2.215c0.229,0.645,0.554,1.189,0.973,1.634c0.419,0.444,0.921,0.783,1.505,1.016
				c0.584,0.233,1.23,0.35,1.94,0.35c0.437,0,0.833-0.043,1.188-0.129c0.355-0.086,0.701-0.2,1.038-0.344v-2.376h-1.548
				c-0.229,0-0.409-0.061-0.538-0.183s-0.194-0.276-0.194-0.463V46.15h5.569v6.611C126.002,53.35,125.147,53.775,124.241,54.041z"/>
			<path fill="#4A4A49" d="M143.682,54.267h-2.816c-0.315,0-0.57-0.073-0.763-0.221c-0.193-0.146-0.34-0.335-0.441-0.564
				l-0.924-2.73h-5.956l-0.924,2.73c-0.079,0.201-0.221,0.382-0.425,0.543s-0.457,0.242-0.758,0.242h-2.838l6.063-15.663h3.719
				L143.682,54.267z M133.62,48.279h4.279l-1.441-4.29c-0.107-0.271-0.222-0.593-0.344-0.962c-0.122-0.369-0.244-0.769-0.366-1.198
				c-0.115,0.437-0.231,0.842-0.349,1.215c-0.118,0.372-0.231,0.695-0.339,0.967L133.62,48.279z"/>
			<path fill="#4A4A49" d="M148.938,51.364h5.805v2.902h-9.438V38.604h3.634V51.364z"/>
			<path fill="#4A4A49" d="M167.063,38.604v2.794h-6.429v3.655h4.924v2.688h-4.924v3.73h6.429v2.795h-10.084V38.604H167.063z"/>
			<path fill="#4A4A49" d="M173.319,48.473v5.794h-3.634V38.604h5.096c1.132,0,2.098,0.116,2.897,0.349
				c0.799,0.233,1.451,0.558,1.956,0.973s0.872,0.907,1.102,1.472c0.229,0.566,0.345,1.183,0.345,1.85
				c0,0.509-0.068,0.989-0.205,1.44c-0.136,0.451-0.338,0.869-0.606,1.252c-0.27,0.384-0.599,0.726-0.989,1.027
				c-0.391,0.301-0.841,0.548-1.35,0.741c0.244,0.122,0.47,0.274,0.678,0.457s0.394,0.399,0.559,0.65l3.333,5.45h-3.29
				c-0.609,0-1.046-0.229-1.312-0.688l-2.602-4.547c-0.122-0.193-0.258-0.335-0.408-0.425c-0.15-0.089-0.365-0.134-0.645-0.134
				H173.319z M173.319,45.968h1.462c0.494,0,0.915-0.062,1.263-0.188c0.348-0.125,0.633-0.299,0.854-0.521
				c0.223-0.222,0.384-0.481,0.484-0.779c0.101-0.297,0.15-0.618,0.15-0.962c0-0.688-0.224-1.226-0.672-1.612
				s-1.142-0.581-2.08-0.581h-1.462V45.968z"/>
			<path fill="#4A4A49" d="M187.864,54.267h-3.655V38.604h3.655V54.267z"/>
		</g>
		<g>
			<path fill="#4A4A49" d="M202.443,38.604v2.794h-6.429v3.655h4.924v2.688h-4.924v3.73h6.429v2.795h-10.084V38.604H202.443z"/>
		</g>
		<g>
			<path fill="#4A4A49" d="M44.717,67.144c0.06,0.131,0.116,0.267,0.171,0.404c0.055-0.142,0.111-0.279,0.171-0.414
				s0.123-0.264,0.19-0.386l1.801-3.544c0.032-0.061,0.065-0.108,0.099-0.142c0.034-0.034,0.071-0.059,0.113-0.075
				c0.042-0.016,0.089-0.025,0.142-0.028c0.053-0.003,0.115-0.005,0.185-0.005h1.243v7.016h-1.435v-4.035
				c0-0.195,0.01-0.407,0.029-0.636l-1.858,3.606c-0.058,0.112-0.136,0.197-0.234,0.256c-0.098,0.058-0.209,0.086-0.334,0.086
				h-0.222c-0.125,0-0.237-0.028-0.334-0.086c-0.098-0.059-0.176-0.144-0.233-0.256l-1.869-3.611
				c0.013,0.112,0.022,0.224,0.029,0.335c0.006,0.11,0.009,0.213,0.009,0.306v4.035h-1.435v-7.016h1.243
				c0.07,0,0.132,0.002,0.185,0.005c0.053,0.003,0.101,0.013,0.142,0.028c0.042,0.017,0.08,0.041,0.113,0.075
				c0.034,0.033,0.066,0.081,0.099,0.142l1.806,3.559C44.596,66.885,44.658,67.012,44.717,67.144z"/>
			<path fill="#4A4A49" d="M53.31,68.684c0.218,0,0.414-0.036,0.585-0.107c0.171-0.072,0.317-0.176,0.436-0.311
				c0.119-0.136,0.209-0.3,0.272-0.494s0.094-0.415,0.094-0.662v-4.155h1.628v4.155c0,0.431-0.07,0.825-0.209,1.185
				s-0.34,0.669-0.6,0.93c-0.26,0.26-0.576,0.462-0.949,0.606s-0.791,0.217-1.257,0.217c-0.469,0-0.889-0.072-1.261-0.217
				c-0.373-0.145-0.689-0.347-0.949-0.606c-0.26-0.261-0.459-0.57-0.597-0.93s-0.207-0.754-0.207-1.185v-4.155h1.627v4.15
				c0,0.247,0.031,0.468,0.094,0.662c0.063,0.194,0.153,0.359,0.272,0.496c0.119,0.137,0.264,0.241,0.436,0.313
				C52.896,68.647,53.091,68.684,53.31,68.684z"/>
			<path fill="#4A4A49" d="M61.664,64.379c-0.048,0.077-0.099,0.135-0.152,0.174c-0.053,0.038-0.121,0.058-0.205,0.058
				c-0.074,0-0.153-0.023-0.238-0.069c-0.085-0.047-0.181-0.1-0.289-0.157c-0.107-0.058-0.23-0.109-0.368-0.156
				s-0.295-0.069-0.472-0.069c-0.305,0-0.532,0.064-0.682,0.194s-0.224,0.306-0.224,0.527c0,0.142,0.045,0.259,0.135,0.352
				s0.208,0.174,0.354,0.241c0.146,0.067,0.313,0.129,0.5,0.185c0.188,0.057,0.38,0.119,0.576,0.188s0.388,0.149,0.575,0.243
				c0.188,0.093,0.354,0.212,0.501,0.356c0.146,0.145,0.264,0.32,0.354,0.527c0.09,0.207,0.135,0.456,0.135,0.748
				c0,0.324-0.056,0.628-0.168,0.91c-0.113,0.283-0.275,0.529-0.489,0.739c-0.214,0.21-0.477,0.376-0.79,0.496
				s-0.668,0.181-1.066,0.181c-0.218,0-0.44-0.022-0.667-0.067c-0.226-0.045-0.445-0.108-0.657-0.19s-0.411-0.179-0.597-0.291
				s-0.348-0.237-0.486-0.376l0.481-0.761c0.039-0.055,0.089-0.101,0.152-0.137c0.062-0.037,0.131-0.056,0.205-0.056
				c0.096,0,0.193,0.03,0.292,0.092c0.098,0.061,0.208,0.128,0.332,0.202c0.124,0.073,0.266,0.141,0.426,0.202
				c0.161,0.061,0.35,0.091,0.568,0.091c0.295,0,0.524-0.064,0.688-0.194c0.164-0.13,0.246-0.337,0.246-0.619
				c0-0.164-0.045-0.297-0.135-0.399c-0.09-0.103-0.208-0.188-0.354-0.255c-0.146-0.067-0.312-0.127-0.499-0.179
				c-0.186-0.051-0.377-0.108-0.573-0.171c-0.196-0.062-0.387-0.14-0.573-0.231c-0.186-0.091-0.353-0.212-0.499-0.36
				c-0.146-0.149-0.264-0.336-0.354-0.559c-0.09-0.224-0.135-0.499-0.135-0.826c0-0.264,0.053-0.521,0.159-0.771
				s0.262-0.474,0.467-0.669c0.206-0.196,0.458-0.353,0.756-0.47c0.298-0.117,0.64-0.176,1.025-0.176
				c0.215,0,0.425,0.017,0.628,0.051c0.204,0.033,0.397,0.083,0.58,0.149c0.183,0.065,0.354,0.144,0.513,0.235
				c0.159,0.092,0.301,0.195,0.426,0.311L61.664,64.379z"/>
			<path fill="#4A4A49" d="M67.833,62.954v1.252h-2.88v1.637h2.206v1.204h-2.206v1.671h2.88v1.252h-4.517v-7.016H67.833z"/>
			<path fill="#4A4A49" d="M71.954,68.684c0.218,0,0.414-0.036,0.585-0.107c0.171-0.072,0.317-0.176,0.436-0.311
				c0.119-0.136,0.209-0.3,0.272-0.494s0.094-0.415,0.094-0.662v-4.155h1.628v4.155c0,0.431-0.07,0.825-0.209,1.185
				s-0.34,0.669-0.6,0.93c-0.26,0.26-0.576,0.462-0.949,0.606s-0.791,0.217-1.257,0.217c-0.469,0-0.889-0.072-1.261-0.217
				c-0.373-0.145-0.689-0.347-0.949-0.606c-0.26-0.261-0.459-0.57-0.597-0.93s-0.207-0.754-0.207-1.185v-4.155h1.627v4.15
				c0,0.247,0.031,0.468,0.094,0.662c0.063,0.194,0.153,0.359,0.272,0.496c0.119,0.137,0.264,0.241,0.436,0.313
				C71.541,68.647,71.736,68.684,71.954,68.684z"/>
			<path fill="#4A4A49" d="M80.205,67.144c0.06,0.131,0.116,0.267,0.171,0.404c0.055-0.142,0.111-0.279,0.171-0.414
				s0.123-0.264,0.19-0.386l1.801-3.544c0.032-0.061,0.065-0.108,0.099-0.142c0.034-0.034,0.071-0.059,0.113-0.075
				c0.042-0.016,0.089-0.025,0.142-0.028c0.053-0.003,0.115-0.005,0.185-0.005h1.243v7.016h-1.435v-4.035
				c0-0.195,0.01-0.407,0.029-0.636l-1.858,3.606c-0.058,0.112-0.136,0.197-0.234,0.256c-0.098,0.058-0.209,0.086-0.334,0.086
				h-0.222c-0.125,0-0.237-0.028-0.334-0.086c-0.098-0.059-0.176-0.144-0.233-0.256l-1.869-3.611
				c0.013,0.112,0.022,0.224,0.029,0.335c0.006,0.11,0.009,0.213,0.009,0.306v4.035h-1.435v-7.016h1.243
				c0.07,0,0.132,0.002,0.185,0.005c0.053,0.003,0.101,0.013,0.142,0.028c0.042,0.017,0.08,0.041,0.113,0.075
				c0.034,0.033,0.066,0.081,0.099,0.142l1.806,3.559C80.084,66.885,80.146,67.012,80.205,67.144z"/>
			<path fill="#4A4A49" d="M92.804,62.954v1.252h-2.88v1.776h2.398v1.257h-2.398v2.73h-1.637v-7.016H92.804z"/>
			<path fill="#4A4A49" d="M96.863,68.684c0.218,0,0.414-0.036,0.585-0.107c0.171-0.072,0.317-0.176,0.436-0.311
				c0.119-0.136,0.209-0.3,0.272-0.494s0.094-0.415,0.094-0.662v-4.155h1.628v4.155c0,0.431-0.07,0.825-0.209,1.185
				s-0.34,0.669-0.6,0.93c-0.26,0.26-0.576,0.462-0.949,0.606s-0.791,0.217-1.257,0.217c-0.469,0-0.889-0.072-1.261-0.217
				c-0.373-0.145-0.689-0.347-0.949-0.606c-0.26-0.261-0.459-0.57-0.597-0.93s-0.207-0.754-0.207-1.185v-4.155h1.627v4.15
				c0,0.247,0.031,0.468,0.094,0.662c0.063,0.194,0.153,0.359,0.272,0.496c0.119,0.137,0.264,0.241,0.436,0.313
				C96.45,68.647,96.645,68.684,96.863,68.684z M96.507,61.938c0,0.104-0.021,0.198-0.061,0.284
				c-0.04,0.087-0.095,0.163-0.166,0.229c-0.071,0.065-0.152,0.117-0.246,0.153c-0.093,0.037-0.192,0.056-0.298,0.056
				c-0.097,0-0.189-0.019-0.277-0.056c-0.088-0.036-0.167-0.088-0.234-0.153c-0.067-0.066-0.121-0.143-0.161-0.229
				c-0.04-0.086-0.06-0.181-0.06-0.284c0-0.099,0.02-0.193,0.06-0.283s0.094-0.169,0.161-0.236s0.146-0.12,0.234-0.159
				c0.088-0.038,0.18-0.058,0.277-0.058c0.106,0,0.205,0.02,0.298,0.058c0.093,0.039,0.175,0.092,0.246,0.159
				s0.126,0.146,0.166,0.236S96.507,61.839,96.507,61.938z M98.722,61.938c0,0.104-0.02,0.198-0.06,0.284
				c-0.041,0.087-0.094,0.163-0.162,0.229c-0.067,0.065-0.147,0.117-0.238,0.153c-0.091,0.037-0.188,0.056-0.292,0.056
				c-0.103,0-0.2-0.019-0.291-0.056c-0.092-0.036-0.171-0.088-0.238-0.153c-0.067-0.066-0.122-0.143-0.162-0.229
				c-0.04-0.086-0.06-0.181-0.06-0.284c0-0.099,0.02-0.193,0.06-0.283s0.094-0.169,0.162-0.236s0.146-0.12,0.238-0.159
				c0.091-0.038,0.188-0.058,0.291-0.058c0.103,0,0.2,0.02,0.292,0.058c0.091,0.039,0.171,0.092,0.238,0.159
				s0.121,0.146,0.162,0.236C98.702,61.744,98.722,61.839,98.722,61.938z"/>
			<path fill="#4A4A49" d="M102.969,67.374v2.596h-1.628v-7.016h2.283c0.507,0,0.939,0.052,1.298,0.156
				c0.358,0.104,0.65,0.25,0.876,0.436c0.227,0.187,0.391,0.406,0.494,0.66c0.103,0.254,0.154,0.529,0.154,0.828
				c0,0.228-0.031,0.443-0.092,0.646s-0.151,0.389-0.272,0.561c-0.12,0.172-0.268,0.325-0.443,0.46s-0.376,0.245-0.604,0.332
				c0.109,0.055,0.21,0.123,0.304,0.205c0.093,0.082,0.176,0.179,0.25,0.291l1.493,2.441h-1.473c-0.273,0-0.469-0.103-0.587-0.309
				l-1.166-2.036c-0.055-0.087-0.115-0.15-0.183-0.19c-0.067-0.04-0.164-0.061-0.289-0.061H102.969z M102.969,66.252h0.655
				c0.222,0,0.41-0.027,0.566-0.084c0.155-0.056,0.283-0.134,0.383-0.233c0.099-0.1,0.171-0.216,0.216-0.349
				c0.045-0.134,0.067-0.277,0.067-0.432c0-0.308-0.1-0.549-0.301-0.722c-0.201-0.174-0.511-0.261-0.932-0.261h-0.655V66.252z"/>
			<path fill="#4A4A49" d="M115,69.868c-0.406,0.119-0.831,0.179-1.273,0.179c-0.578,0-1.104-0.091-1.577-0.272
				c-0.474-0.181-0.879-0.432-1.216-0.751c-0.337-0.319-0.597-0.698-0.78-1.137c-0.183-0.438-0.274-0.914-0.274-1.428
				c0-0.522,0.087-1.004,0.26-1.441c0.173-0.438,0.421-0.816,0.744-1.135c0.323-0.317,0.713-0.564,1.17-0.741
				c0.457-0.177,0.968-0.265,1.534-0.265c0.292,0,0.566,0.024,0.823,0.072s0.494,0.114,0.71,0.197
				c0.217,0.084,0.415,0.183,0.595,0.299c0.18,0.115,0.34,0.24,0.482,0.375l-0.472,0.718c-0.074,0.112-0.169,0.182-0.287,0.207
				s-0.243-0.003-0.378-0.087c-0.128-0.077-0.25-0.144-0.363-0.199c-0.114-0.057-0.23-0.103-0.349-0.138
				c-0.119-0.035-0.244-0.061-0.376-0.077c-0.131-0.016-0.279-0.023-0.443-0.023c-0.305,0-0.58,0.054-0.823,0.161
				c-0.244,0.107-0.452,0.259-0.624,0.455c-0.172,0.195-0.304,0.431-0.397,0.705s-0.14,0.58-0.14,0.917
				c0,0.373,0.051,0.703,0.154,0.992c0.103,0.289,0.248,0.533,0.436,0.732c0.188,0.199,0.413,0.351,0.674,0.455
				c0.262,0.104,0.551,0.156,0.869,0.156c0.196,0,0.373-0.02,0.532-0.058c0.159-0.039,0.313-0.09,0.464-0.154v-1.064h-0.693
				c-0.103,0-0.183-0.027-0.241-0.082c-0.058-0.054-0.086-0.123-0.086-0.207v-0.896h2.494v2.962
				C115.789,69.559,115.406,69.75,115,69.868z"/>
			<path fill="#4A4A49" d="M119.061,67.374v2.596h-1.628v-7.016h2.283c0.507,0,0.939,0.052,1.298,0.156
				c0.358,0.104,0.65,0.25,0.876,0.436c0.227,0.187,0.391,0.406,0.494,0.66c0.103,0.254,0.154,0.529,0.154,0.828
				c0,0.228-0.031,0.443-0.092,0.646s-0.151,0.389-0.272,0.561c-0.12,0.172-0.268,0.325-0.443,0.46s-0.376,0.245-0.604,0.332
				c0.109,0.055,0.21,0.123,0.304,0.205c0.093,0.082,0.176,0.179,0.25,0.291l1.493,2.441H121.7c-0.273,0-0.469-0.103-0.587-0.309
				l-1.166-2.036c-0.055-0.087-0.115-0.15-0.183-0.19c-0.067-0.04-0.164-0.061-0.289-0.061H119.061z M119.061,66.252h0.655
				c0.222,0,0.41-0.027,0.566-0.084c0.155-0.056,0.283-0.134,0.383-0.233c0.099-0.1,0.171-0.216,0.216-0.349
				c0.045-0.134,0.067-0.277,0.067-0.432c0-0.308-0.1-0.549-0.301-0.722c-0.201-0.174-0.511-0.261-0.932-0.261h-0.655V66.252z"/>
			<path fill="#4A4A49" d="M130.251,69.97h-1.262c-0.142,0-0.255-0.033-0.342-0.099c-0.087-0.065-0.153-0.15-0.198-0.253
				l-0.414-1.223h-2.667l-0.414,1.223c-0.036,0.09-0.099,0.171-0.19,0.243c-0.091,0.072-0.205,0.108-0.339,0.108h-1.271l2.716-7.016
				h1.666L130.251,69.97z M125.744,67.288h1.917l-0.645-1.922c-0.048-0.122-0.1-0.266-0.154-0.431s-0.109-0.345-0.164-0.537
				c-0.052,0.196-0.104,0.377-0.157,0.544c-0.053,0.167-0.104,0.312-0.151,0.434L125.744,67.288z"/>
			<path fill="#4A4A49" d="M135.515,62.954v1.252h-2.88v1.776h2.398v1.257h-2.398v2.73h-1.637v-7.016H135.515z"/>
			<path fill="#4A4A49" d="M138.283,69.97h-1.637v-7.016h1.637V69.97z"/>
			<path fill="#4A4A49" d="M143.709,64.379c-0.048,0.077-0.099,0.135-0.152,0.174c-0.053,0.038-0.121,0.058-0.205,0.058
				c-0.074,0-0.153-0.023-0.238-0.069c-0.085-0.047-0.181-0.1-0.289-0.157c-0.107-0.058-0.23-0.109-0.368-0.156
				s-0.295-0.069-0.472-0.069c-0.305,0-0.532,0.064-0.682,0.194s-0.224,0.306-0.224,0.527c0,0.142,0.045,0.259,0.135,0.352
				s0.208,0.174,0.354,0.241c0.146,0.067,0.313,0.129,0.5,0.185c0.188,0.057,0.38,0.119,0.576,0.188s0.388,0.149,0.575,0.243
				c0.188,0.093,0.354,0.212,0.501,0.356c0.146,0.145,0.264,0.32,0.354,0.527c0.09,0.207,0.135,0.456,0.135,0.748
				c0,0.324-0.056,0.628-0.168,0.91c-0.113,0.283-0.275,0.529-0.489,0.739c-0.214,0.21-0.477,0.376-0.79,0.496
				s-0.668,0.181-1.066,0.181c-0.218,0-0.44-0.022-0.667-0.067c-0.226-0.045-0.445-0.108-0.657-0.19s-0.411-0.179-0.597-0.291
				s-0.348-0.237-0.486-0.376l0.481-0.761c0.039-0.055,0.089-0.101,0.152-0.137c0.062-0.037,0.131-0.056,0.205-0.056
				c0.096,0,0.193,0.03,0.292,0.092c0.098,0.061,0.208,0.128,0.332,0.202c0.124,0.073,0.266,0.141,0.426,0.202
				c0.161,0.061,0.35,0.091,0.568,0.091c0.295,0,0.524-0.064,0.688-0.194c0.164-0.13,0.246-0.337,0.246-0.619
				c0-0.164-0.045-0.297-0.135-0.399c-0.09-0.103-0.208-0.188-0.354-0.255c-0.146-0.067-0.312-0.127-0.499-0.179
				c-0.186-0.051-0.377-0.108-0.573-0.171c-0.196-0.062-0.387-0.14-0.573-0.231c-0.186-0.091-0.353-0.212-0.499-0.36
				c-0.146-0.149-0.264-0.336-0.354-0.559c-0.09-0.224-0.135-0.499-0.135-0.826c0-0.264,0.053-0.521,0.159-0.771
				s0.262-0.474,0.467-0.669c0.206-0.196,0.458-0.353,0.756-0.47c0.298-0.117,0.64-0.176,1.025-0.176
				c0.215,0,0.425,0.017,0.628,0.051c0.204,0.033,0.397,0.083,0.58,0.149c0.183,0.065,0.354,0.144,0.513,0.235
				c0.159,0.092,0.301,0.195,0.426,0.311L143.709,64.379z"/>
			<path fill="#4A4A49" d="M150.09,68.154c0.039,0,0.076,0.007,0.115,0.021s0.076,0.04,0.111,0.075l0.645,0.679
				c-0.283,0.369-0.637,0.647-1.061,0.835c-0.426,0.188-0.93,0.282-1.511,0.282c-0.533,0-1.01-0.091-1.432-0.272
				c-0.422-0.181-0.78-0.432-1.074-0.751c-0.293-0.319-0.519-0.698-0.676-1.137c-0.157-0.438-0.236-0.914-0.236-1.428
				c0-0.522,0.085-1.004,0.255-1.441c0.17-0.438,0.41-0.816,0.718-1.135c0.308-0.317,0.677-0.564,1.107-0.741
				s0.903-0.265,1.42-0.265c0.263,0,0.511,0.023,0.743,0.069c0.234,0.047,0.451,0.111,0.652,0.193
				c0.203,0.081,0.389,0.181,0.559,0.296c0.172,0.115,0.322,0.24,0.453,0.376l-0.549,0.736c-0.035,0.045-0.076,0.086-0.125,0.123
				c-0.049,0.036-0.115,0.055-0.201,0.055c-0.059,0-0.113-0.013-0.164-0.038c-0.053-0.025-0.107-0.057-0.164-0.094
				c-0.059-0.037-0.121-0.077-0.191-0.12c-0.068-0.044-0.15-0.084-0.244-0.121c-0.096-0.037-0.205-0.068-0.332-0.094
				s-0.275-0.038-0.446-0.038c-0.27,0-0.516,0.05-0.739,0.148c-0.223,0.1-0.416,0.245-0.578,0.437
				c-0.162,0.19-0.287,0.425-0.375,0.703c-0.088,0.277-0.132,0.595-0.132,0.95c0,0.36,0.049,0.68,0.147,0.959
				c0.098,0.279,0.231,0.515,0.399,0.705c0.168,0.191,0.365,0.336,0.59,0.436s0.465,0.149,0.723,0.149
				c0.147,0,0.281-0.007,0.404-0.021c0.121-0.015,0.236-0.039,0.342-0.072c0.105-0.034,0.205-0.079,0.299-0.135
				c0.092-0.057,0.188-0.128,0.283-0.214c0.039-0.032,0.08-0.059,0.125-0.08C149.994,68.165,150.041,68.154,150.09,68.154z"/>
			<path fill="#4A4A49" d="M157.991,69.97h-1.637v-2.966h-2.851v2.966h-1.638v-7.016h1.638v2.933h2.851v-2.933h1.637V69.97z"/>
			<path fill="#4A4A49" d="M164.059,62.954v1.252h-2.879v1.637h2.205v1.204h-2.205v1.671h2.879v1.252h-4.517v-7.016H164.059z"/>
			<path fill="#4A4A49" d="M169.298,65.795h0.26c0.241,0,0.414-0.075,0.521-0.227l1.579-2.292c0.093-0.122,0.193-0.206,0.301-0.253
				c0.107-0.046,0.241-0.069,0.402-0.069h1.415l-2.08,2.836c-0.147,0.196-0.307,0.337-0.477,0.424
				c0.122,0.045,0.233,0.107,0.332,0.188c0.1,0.08,0.193,0.185,0.279,0.313l2.119,3.255h-1.454c-0.093,0-0.173-0.007-0.238-0.02
				c-0.066-0.013-0.123-0.032-0.171-0.058c-0.049-0.025-0.09-0.057-0.125-0.094c-0.036-0.037-0.069-0.079-0.102-0.128l-1.589-2.441
				c-0.058-0.09-0.131-0.153-0.219-0.189c-0.089-0.037-0.208-0.056-0.359-0.056h-0.395v2.985h-1.628v-7.016h1.628V65.795z"/>
			<path fill="#4A4A49" d="M177.594,68.684c0.219,0,0.413-0.036,0.585-0.107c0.172-0.072,0.317-0.176,0.436-0.311
				c0.119-0.136,0.21-0.3,0.272-0.494s0.094-0.415,0.094-0.662v-4.155h1.628v4.155c0,0.431-0.07,0.825-0.21,1.185
				s-0.339,0.669-0.6,0.93c-0.26,0.26-0.576,0.462-0.948,0.606s-0.791,0.217-1.257,0.217c-0.469,0-0.889-0.072-1.262-0.217
				c-0.372-0.145-0.688-0.347-0.948-0.606c-0.26-0.261-0.459-0.57-0.597-0.93c-0.139-0.359-0.208-0.754-0.208-1.185v-4.155h1.628
				v4.15c0,0.247,0.031,0.468,0.094,0.662s0.153,0.359,0.272,0.496c0.118,0.137,0.264,0.241,0.436,0.313
				C177.181,68.647,177.376,68.684,177.594,68.684z M177.237,61.938c0,0.104-0.02,0.198-0.06,0.284
				c-0.04,0.087-0.096,0.163-0.166,0.229c-0.071,0.065-0.153,0.117-0.246,0.153c-0.093,0.037-0.192,0.056-0.299,0.056
				c-0.096,0-0.188-0.019-0.276-0.056c-0.089-0.036-0.166-0.088-0.233-0.153c-0.067-0.066-0.121-0.143-0.161-0.229
				c-0.041-0.086-0.061-0.181-0.061-0.284c0-0.099,0.02-0.193,0.061-0.283c0.04-0.09,0.094-0.169,0.161-0.236
				s0.145-0.12,0.233-0.159c0.088-0.038,0.181-0.058,0.276-0.058c0.106,0,0.206,0.02,0.299,0.058
				c0.093,0.039,0.175,0.092,0.246,0.159c0.07,0.067,0.126,0.146,0.166,0.236S177.237,61.839,177.237,61.938z M179.452,61.938
				c0,0.104-0.02,0.198-0.06,0.284c-0.04,0.087-0.094,0.163-0.161,0.229c-0.067,0.065-0.147,0.117-0.238,0.153
				c-0.092,0.037-0.189,0.056-0.292,0.056s-0.199-0.019-0.291-0.056c-0.092-0.036-0.171-0.088-0.238-0.153
				c-0.067-0.066-0.121-0.143-0.161-0.229c-0.04-0.086-0.061-0.181-0.061-0.284c0-0.099,0.021-0.193,0.061-0.283
				s0.094-0.169,0.161-0.236s0.146-0.12,0.238-0.159c0.092-0.038,0.188-0.058,0.291-0.058s0.2,0.02,0.292,0.058
				c0.091,0.039,0.171,0.092,0.238,0.159s0.121,0.146,0.161,0.236S179.452,61.839,179.452,61.938z"/>
			<path fill="#4A4A49" d="M183.106,62.964c0.049,0.006,0.092,0.019,0.13,0.036c0.039,0.018,0.076,0.042,0.111,0.074
				s0.075,0.075,0.12,0.13l3.332,4.214c-0.013-0.135-0.022-0.266-0.028-0.393c-0.007-0.127-0.01-0.246-0.01-0.359v-3.712h1.435
				v7.016h-0.848c-0.125,0-0.23-0.02-0.315-0.061c-0.085-0.04-0.169-0.109-0.252-0.209l-3.309-4.18
				c0.01,0.122,0.018,0.241,0.024,0.358c0.006,0.117,0.01,0.228,0.01,0.33v3.761h-1.436v-7.016h0.857
				C182.999,62.954,183.059,62.957,183.106,62.964z"/>
			<path fill="#4A4A49" d="M193.624,64.379c-0.049,0.077-0.1,0.135-0.152,0.174c-0.053,0.038-0.121,0.058-0.204,0.058
				c-0.074,0-0.153-0.023-0.238-0.069c-0.086-0.047-0.182-0.1-0.289-0.157s-0.23-0.109-0.368-0.156
				c-0.139-0.047-0.296-0.069-0.473-0.069c-0.305,0-0.532,0.064-0.681,0.194c-0.149,0.13-0.225,0.306-0.225,0.527
				c0,0.142,0.045,0.259,0.135,0.352s0.208,0.174,0.354,0.241c0.146,0.067,0.312,0.129,0.501,0.185
				c0.188,0.057,0.379,0.119,0.575,0.188c0.195,0.069,0.388,0.149,0.575,0.243c0.188,0.093,0.354,0.212,0.501,0.356
				c0.146,0.145,0.264,0.32,0.354,0.527s0.135,0.456,0.135,0.748c0,0.324-0.056,0.628-0.168,0.91
				c-0.112,0.283-0.275,0.529-0.489,0.739c-0.213,0.21-0.477,0.376-0.789,0.496c-0.313,0.12-0.669,0.181-1.067,0.181
				c-0.218,0-0.44-0.022-0.666-0.067c-0.227-0.045-0.446-0.108-0.658-0.19c-0.211-0.082-0.41-0.179-0.597-0.291
				s-0.349-0.237-0.486-0.376l0.481-0.761c0.039-0.055,0.089-0.101,0.151-0.137c0.063-0.037,0.131-0.056,0.205-0.056
				c0.097,0,0.193,0.03,0.291,0.092c0.099,0.061,0.209,0.128,0.333,0.202c0.123,0.073,0.266,0.141,0.426,0.202
				c0.16,0.061,0.35,0.091,0.568,0.091c0.295,0,0.524-0.064,0.688-0.194s0.245-0.337,0.245-0.619c0-0.164-0.045-0.297-0.135-0.399
				s-0.208-0.188-0.354-0.255c-0.146-0.067-0.312-0.127-0.498-0.179c-0.187-0.051-0.378-0.108-0.573-0.171
				c-0.196-0.062-0.387-0.14-0.573-0.231c-0.187-0.091-0.353-0.212-0.498-0.36c-0.146-0.149-0.265-0.336-0.354-0.559
				c-0.09-0.224-0.135-0.499-0.135-0.826c0-0.264,0.053-0.521,0.159-0.771c0.105-0.25,0.262-0.474,0.467-0.669
				c0.206-0.196,0.458-0.353,0.756-0.47c0.299-0.117,0.641-0.176,1.026-0.176c0.215,0,0.424,0.017,0.628,0.051
				c0.204,0.033,0.397,0.083,0.58,0.149c0.184,0.065,0.354,0.144,0.513,0.235c0.159,0.092,0.302,0.195,0.427,0.311L193.624,64.379z"
				/>
			<path fill="#4A4A49" d="M200.316,62.954v1.29h-1.975v5.726h-1.627v-5.726h-1.975v-1.29H200.316z"/>
			<path fill="#4A4A49" d="M205.849,62.954v1.252h-2.879v1.637h2.205v1.204h-2.205v1.671h2.879v1.252h-4.517v-7.016H205.849z"/>
		</g>
	</g>
</g>
<g id="Ebene_2">
	<g id="Ebene_2_1_">
		<g id="Ebene_2_2_">
			<g id="Ebene_4">
				<g id="Ebene_3">
					<g>
						<g>
							<g>
								<g>
									<g>
										<g>
											<defs>
												<path id="SVGID_1_" d="M214.282,19.489c-1.104,2.371-1.629,4.863-1.631,7.318v0.026
													c0.007,6.532,3.717,12.786,10.027,15.728l2.203-4.721c-6.084-2.836-8.719-10.066-5.879-16.148
													c2.836-6.084,10.062-8.717,16.146-5.879l2.201-4.721c-2.375-1.105-4.869-1.63-7.326-1.63
													C223.489,9.461,217.228,13.173,214.282,19.489"/>
											</defs>
											<clipPath id="SVGID_2_">
												<use xlink:href="#SVGID_1_"  overflow="visible"/>
											</clipPath>
											
												<linearGradient id="SVGID_3_" gradientUnits="userSpaceOnUse" x1="-975.1948" y1="148.4404" x2="-975.0066" y2="148.4404" gradientTransform="matrix(-77.8595 166.9699 166.9699 77.8595 -100480.4688 151279.7812)">
												<stop  offset="0" style="stop-color:#E1181E"/>
												<stop  offset="1" style="stop-color:#9F2481"/>
											</linearGradient>
											<polygon clip-path="url(#SVGID_2_)" fill="url(#SVGID_3_)" points="217.063,0 199.975,36.649 232.942,52.021 
												250.032,15.374 											"/>
										</g>
									</g>
								</g>
							</g>
						</g>
					</g>
				</g>
				<g>
					<g>
						<g>
							<g>
								<g>
									<g>
										<defs>
											<path id="SVGID_4_" d="M228.935,29.354c6.082,2.836,8.713,10.066,5.877,16.148c-2.836,6.084-10.064,8.715-16.15,5.879
												l-2.197,4.723c2.372,1.105,4.867,1.631,7.318,1.631h0.008c6.539,0,12.801-3.711,15.742-10.027
												c4.057-8.688,0.293-19.019-8.395-23.069L228.935,29.354z"/>
										</defs>
										<clipPath id="SVGID_5_">
											<use xlink:href="#SVGID_4_"  overflow="visible"/>
										</clipPath>
										
											<linearGradient id="SVGID_6_" gradientUnits="userSpaceOnUse" x1="-975.5439" y1="138.6387" x2="-975.3554" y2="138.6387" gradientTransform="matrix(-77.8595 166.9699 -166.9699 -77.8595 -52570.4023 173708.0938)">
											<stop  offset="0" style="stop-color:#E1181E"/>
											<stop  offset="1" style="stop-color:#9F2481"/>
										</linearGradient>
										<polygon clip-path="url(#SVGID_5_)" fill="url(#SVGID_6_)" points="256.263,30.546 238.739,68.123 203.783,51.82 
											221.306,14.245 										"/>
									</g>
								</g>
							</g>
						</g>
					</g>
				</g>
			</g>
		</g>
	</g>
</g>
</svg>
